<mxfile host="app.diagrams.net" agent="Mozilla/5.0 (X11; Linux x86_64; rv:140.0) Gecko/20100101 Firefox/140.0" version="28.1.1">
  <diagram id="R2lEEEUBdFMjLlhIrx00" name="Page-1">
    <mxGraphModel dx="2297" dy="588" grid="1" gridSize="10" guides="1" tooltips="1" connect="1" arrows="1" fold="1" page="0" pageScale="1" pageWidth="850" pageHeight="1100" background="light-dark(#FFFFFF, #ffffff)" math="0" shadow="0" extFonts="Permanent Marker^https://fonts.googleapis.com/css?family=Permanent+Marker">
      <root>
        <mxCell id="0" />
        <mxCell id="1" parent="0" />
        <mxCell id="vVDjYdug2uCJDTK2KYmB-4" style="edgeStyle=orthogonalEdgeStyle;rounded=0;orthogonalLoop=1;jettySize=auto;html=1;exitX=0.5;exitY=0;exitDx=0;exitDy=0;strokeColor=light-dark(#000000,#4D4D4D);shape=link;" parent="1" source="vVDjYdug2uCJDTK2KYmB-5" edge="1">
          <mxGeometry relative="1" as="geometry">
            <mxPoint x="-735" y="500" as="targetPoint" />
          </mxGeometry>
        </mxCell>
        <mxCell id="vVDjYdug2uCJDTK2KYmB-29" style="edgeStyle=orthogonalEdgeStyle;rounded=0;orthogonalLoop=1;jettySize=auto;html=1;exitX=0.5;exitY=1;exitDx=0;exitDy=0;entryX=0.5;entryY=0;entryDx=0;entryDy=0;strokeColor=light-dark(#000000,#4D4D4D);endArrow=none;endFill=0;" parent="1" source="vVDjYdug2uCJDTK2KYmB-2" target="vVDjYdug2uCJDTK2KYmB-28" edge="1">
          <mxGeometry relative="1" as="geometry">
            <Array as="points">
              <mxPoint x="-710" y="610" />
              <mxPoint x="-710" y="630" />
              <mxPoint x="-680" y="630" />
            </Array>
          </mxGeometry>
        </mxCell>
        <mxCell id="vVDjYdug2uCJDTK2KYmB-35" style="edgeStyle=orthogonalEdgeStyle;rounded=0;orthogonalLoop=1;jettySize=auto;html=1;exitX=1;exitY=1;exitDx=0;exitDy=0;entryX=0.5;entryY=0;entryDx=0;entryDy=0;strokeColor=light-dark(#000000,#4D4D4D);endArrow=none;endFill=0;" parent="1" source="vVDjYdug2uCJDTK2KYmB-2" target="vVDjYdug2uCJDTK2KYmB-32" edge="1">
          <mxGeometry relative="1" as="geometry">
            <Array as="points">
              <mxPoint x="-675" y="610" />
            </Array>
          </mxGeometry>
        </mxCell>
        <mxCell id="vVDjYdug2uCJDTK2KYmB-37" style="edgeStyle=orthogonalEdgeStyle;rounded=0;orthogonalLoop=1;jettySize=auto;html=1;exitX=0;exitY=0.5;exitDx=0;exitDy=0;entryX=1;entryY=0.5;entryDx=0;entryDy=0;strokeColor=light-dark(#000000,#4D4D4D);endArrow=none;endFill=0;" parent="1" source="vVDjYdug2uCJDTK2KYmB-2" edge="1">
          <mxGeometry relative="1" as="geometry">
            <mxPoint x="-787.5" y="590" as="targetPoint" />
          </mxGeometry>
        </mxCell>
        <mxCell id="vVDjYdug2uCJDTK2KYmB-46" style="edgeStyle=orthogonalEdgeStyle;rounded=0;orthogonalLoop=1;jettySize=auto;html=1;exitX=1;exitY=0.5;exitDx=0;exitDy=0;entryX=0;entryY=0.5;entryDx=0;entryDy=0;fillColor=#d0cee2;strokeColor=light-dark(#56517E,#4D4D4D);endArrow=none;endFill=0;" parent="1" source="vVDjYdug2uCJDTK2KYmB-2" target="vVDjYdug2uCJDTK2KYmB-45" edge="1">
          <mxGeometry relative="1" as="geometry" />
        </mxCell>
        <mxCell id="vVDjYdug2uCJDTK2KYmB-72" style="edgeStyle=orthogonalEdgeStyle;rounded=0;orthogonalLoop=1;jettySize=auto;html=1;exitX=0.5;exitY=1;exitDx=0;exitDy=0;entryX=0.5;entryY=0;entryDx=0;entryDy=0;strokeColor=light-dark(#000000,#4D4D4D);endArrow=none;endFill=0;" parent="1" source="vVDjYdug2uCJDTK2KYmB-2" target="vVDjYdug2uCJDTK2KYmB-70" edge="1">
          <mxGeometry relative="1" as="geometry" />
        </mxCell>
        <mxCell id="vVDjYdug2uCJDTK2KYmB-74" value="1" style="edgeLabel;html=1;align=center;verticalAlign=middle;resizable=0;points=[];fontSize=12;labelBackgroundColor=none;fontColor=light-dark(#000000,#1A1A1A);" parent="vVDjYdug2uCJDTK2KYmB-72" vertex="1" connectable="0">
          <mxGeometry x="-0.3856" y="5" relative="1" as="geometry">
            <mxPoint x="-20" y="-9" as="offset" />
          </mxGeometry>
        </mxCell>
        <mxCell id="PWTfCKyNZOLaZhIINm7h-1" style="edgeStyle=orthogonalEdgeStyle;rounded=0;orthogonalLoop=1;jettySize=auto;html=1;exitX=0.25;exitY=1;exitDx=0;exitDy=0;strokeColor=light-dark(#000000,#4D4D4D);endArrow=none;endFill=0;" edge="1" parent="1" source="vVDjYdug2uCJDTK2KYmB-2" target="vVDjYdug2uCJDTK2KYmB-93">
          <mxGeometry relative="1" as="geometry">
            <Array as="points">
              <mxPoint x="-753" y="630" />
              <mxPoint x="-753" y="670" />
            </Array>
          </mxGeometry>
        </mxCell>
        <mxCell id="vVDjYdug2uCJDTK2KYmB-2" value="Curso" style="whiteSpace=wrap;html=1;align=center;fillColor=#d0cee2;strokeColor=#56517e;" parent="1" vertex="1">
          <mxGeometry x="-770" y="570" width="70" height="40" as="geometry" />
        </mxCell>
        <mxCell id="vVDjYdug2uCJDTK2KYmB-17" style="edgeStyle=orthogonalEdgeStyle;rounded=0;orthogonalLoop=1;jettySize=auto;html=1;exitX=0.5;exitY=0;exitDx=0;exitDy=0;entryX=0;entryY=0.5;entryDx=0;entryDy=0;strokeColor=light-dark(#000000,#4D4D4D);endArrow=none;endFill=0;" parent="1" source="vVDjYdug2uCJDTK2KYmB-3" target="vVDjYdug2uCJDTK2KYmB-16" edge="1">
          <mxGeometry relative="1" as="geometry" />
        </mxCell>
        <mxCell id="vVDjYdug2uCJDTK2KYmB-19" value="1" style="edgeLabel;html=1;align=center;verticalAlign=middle;resizable=0;points=[];fontSize=12;labelBackgroundColor=none;fontColor=light-dark(#000000,#000000);" parent="vVDjYdug2uCJDTK2KYmB-17" vertex="1" connectable="0">
          <mxGeometry x="-0.7524" relative="1" as="geometry">
            <mxPoint x="5" y="3" as="offset" />
          </mxGeometry>
        </mxCell>
        <mxCell id="vVDjYdug2uCJDTK2KYmB-25" style="edgeStyle=orthogonalEdgeStyle;rounded=0;orthogonalLoop=1;jettySize=auto;html=1;exitX=0.25;exitY=0;exitDx=0;exitDy=0;entryX=0.5;entryY=1;entryDx=0;entryDy=0;strokeColor=light-dark(#000000,#4D4D4D);endArrow=none;endFill=0;" parent="1" source="vVDjYdug2uCJDTK2KYmB-3" target="vVDjYdug2uCJDTK2KYmB-24" edge="1">
          <mxGeometry relative="1" as="geometry" />
        </mxCell>
        <mxCell id="vVDjYdug2uCJDTK2KYmB-3" value="&lt;div&gt;Área de Conhecimento&lt;/div&gt;" style="whiteSpace=wrap;html=1;align=center;fillColor=#d0cee2;strokeColor=#56517e;" parent="1" vertex="1">
          <mxGeometry x="-785" y="380" width="100" height="40" as="geometry" />
        </mxCell>
        <mxCell id="vVDjYdug2uCJDTK2KYmB-6" value="" style="edgeStyle=orthogonalEdgeStyle;rounded=0;orthogonalLoop=1;jettySize=auto;html=1;" parent="1" target="vVDjYdug2uCJDTK2KYmB-2" edge="1">
          <mxGeometry relative="1" as="geometry">
            <mxPoint x="-735" y="530" as="sourcePoint" />
          </mxGeometry>
        </mxCell>
        <mxCell id="vVDjYdug2uCJDTK2KYmB-7" value="" style="edgeStyle=orthogonalEdgeStyle;rounded=0;orthogonalLoop=1;jettySize=auto;html=1;exitX=0.5;exitY=0;exitDx=0;exitDy=0;strokeColor=light-dark(#000000,#4D4D4D);shape=link;" parent="1" source="vVDjYdug2uCJDTK2KYmB-2" target="vVDjYdug2uCJDTK2KYmB-5" edge="1">
          <mxGeometry relative="1" as="geometry">
            <mxPoint x="-735" y="570" as="sourcePoint" />
            <mxPoint x="-735" y="500" as="targetPoint" />
          </mxGeometry>
        </mxCell>
        <mxCell id="vVDjYdug2uCJDTK2KYmB-12" style="edgeStyle=orthogonalEdgeStyle;rounded=0;orthogonalLoop=1;jettySize=auto;html=1;exitX=0.5;exitY=0;exitDx=0;exitDy=0;entryX=0.5;entryY=1;entryDx=0;entryDy=0;endArrow=none;endFill=0;strokeColor=light-dark(#000000,#4D4D4D);" parent="1" source="vVDjYdug2uCJDTK2KYmB-5" target="vVDjYdug2uCJDTK2KYmB-3" edge="1">
          <mxGeometry relative="1" as="geometry" />
        </mxCell>
        <mxCell id="vVDjYdug2uCJDTK2KYmB-13" value="N" style="edgeLabel;html=1;align=center;verticalAlign=middle;resizable=0;points=[];fontSize=12;labelBackgroundColor=none;fontColor=light-dark(#000000,#000000);" parent="vVDjYdug2uCJDTK2KYmB-12" vertex="1" connectable="0">
          <mxGeometry x="0.52" y="-1" relative="1" as="geometry">
            <mxPoint x="14" y="128" as="offset" />
          </mxGeometry>
        </mxCell>
        <mxCell id="vVDjYdug2uCJDTK2KYmB-5" value="Possui" style="shape=rhombus;perimeter=rhombusPerimeter;whiteSpace=wrap;html=1;align=center;fillColor=#d0cee2;strokeColor=#56517e;" parent="1" vertex="1">
          <mxGeometry x="-777.5" y="470" width="85" height="60" as="geometry" />
        </mxCell>
        <mxCell id="vVDjYdug2uCJDTK2KYmB-14" value="1" style="edgeLabel;html=1;align=center;verticalAlign=middle;resizable=0;points=[];fontSize=12;labelBackgroundColor=none;fontColor=light-dark(#000000,#000000);" parent="1" vertex="1" connectable="0">
          <mxGeometry x="-730" y="440" as="geometry" />
        </mxCell>
        <mxCell id="vVDjYdug2uCJDTK2KYmB-18" style="edgeStyle=orthogonalEdgeStyle;rounded=0;orthogonalLoop=1;jettySize=auto;html=1;exitX=0.5;exitY=1;exitDx=0;exitDy=0;strokeColor=light-dark(#000000,#4D4D4D);endArrow=none;endFill=0;entryX=1;entryY=0.5;entryDx=0;entryDy=0;" parent="1" source="vVDjYdug2uCJDTK2KYmB-16" target="vVDjYdug2uCJDTK2KYmB-3" edge="1">
          <mxGeometry relative="1" as="geometry">
            <mxPoint x="-680" y="400" as="targetPoint" />
          </mxGeometry>
        </mxCell>
        <mxCell id="vVDjYdug2uCJDTK2KYmB-21" value="N" style="edgeLabel;html=1;align=center;verticalAlign=middle;resizable=0;points=[];fontSize=12;labelBackgroundColor=none;fontColor=light-dark(#000000,#000000);" parent="vVDjYdug2uCJDTK2KYmB-18" vertex="1" connectable="0">
          <mxGeometry x="0.3778" relative="1" as="geometry">
            <mxPoint x="-23" y="10" as="offset" />
          </mxGeometry>
        </mxCell>
        <mxCell id="vVDjYdug2uCJDTK2KYmB-16" value="Integra" style="shape=rhombus;perimeter=rhombusPerimeter;whiteSpace=wrap;html=1;align=center;fillColor=#d0cee2;strokeColor=#56517e;" parent="1" vertex="1">
          <mxGeometry x="-660" y="320" width="90" height="60" as="geometry" />
        </mxCell>
        <mxCell id="vVDjYdug2uCJDTK2KYmB-23" style="edgeStyle=orthogonalEdgeStyle;rounded=0;orthogonalLoop=1;jettySize=auto;html=1;exitX=0.5;exitY=1;exitDx=0;exitDy=0;entryX=0;entryY=0.5;entryDx=0;entryDy=0;strokeColor=light-dark(#000000,#333333);endArrow=none;endFill=0;" parent="1" source="vVDjYdug2uCJDTK2KYmB-22" target="vVDjYdug2uCJDTK2KYmB-3" edge="1">
          <mxGeometry relative="1" as="geometry">
            <mxPoint x="-790" y="400" as="targetPoint" />
          </mxGeometry>
        </mxCell>
        <mxCell id="vVDjYdug2uCJDTK2KYmB-22" value="Sigla" style="ellipse;whiteSpace=wrap;html=1;align=center;fontStyle=4;fillColor=#d0cee2;strokeColor=#56517e;" parent="1" vertex="1">
          <mxGeometry x="-860" y="350" width="60" height="30" as="geometry" />
        </mxCell>
        <mxCell id="vVDjYdug2uCJDTK2KYmB-24" value="&lt;div&gt;Nome&lt;/div&gt;" style="ellipse;whiteSpace=wrap;html=1;align=center;fillColor=#d0cee2;strokeColor=#56517e;" parent="1" vertex="1">
          <mxGeometry x="-800" y="320" width="50" height="30" as="geometry" />
        </mxCell>
        <mxCell id="vVDjYdug2uCJDTK2KYmB-28" value="Sigla" style="ellipse;whiteSpace=wrap;html=1;align=center;fontStyle=4;fillColor=#d0cee2;strokeColor=#56517e;" parent="1" vertex="1">
          <mxGeometry x="-710" y="650" width="60" height="30" as="geometry" />
        </mxCell>
        <mxCell id="vVDjYdug2uCJDTK2KYmB-30" value="&lt;div&gt;Nome&lt;/div&gt;" style="ellipse;whiteSpace=wrap;html=1;align=center;fillColor=#d0cee2;strokeColor=#56517e;" parent="1" vertex="1">
          <mxGeometry x="-840" y="607.5" width="50" height="30" as="geometry" />
        </mxCell>
        <mxCell id="vVDjYdug2uCJDTK2KYmB-31" style="edgeStyle=orthogonalEdgeStyle;rounded=0;orthogonalLoop=1;jettySize=auto;html=1;exitX=0;exitY=1;exitDx=0;exitDy=0;entryX=0.64;entryY=-0.033;entryDx=0;entryDy=0;entryPerimeter=0;strokeColor=light-dark(#000000,#4D4D4D);endArrow=none;endFill=0;" parent="1" source="vVDjYdug2uCJDTK2KYmB-2" target="vVDjYdug2uCJDTK2KYmB-30" edge="1">
          <mxGeometry relative="1" as="geometry" />
        </mxCell>
        <mxCell id="vVDjYdug2uCJDTK2KYmB-32" value="Custo" style="ellipse;whiteSpace=wrap;html=1;align=center;fillColor=#d0cee2;strokeColor=#56517e;" parent="1" vertex="1">
          <mxGeometry x="-692.5" y="600" width="60" height="30" as="geometry" />
        </mxCell>
        <mxCell id="vVDjYdug2uCJDTK2KYmB-41" style="edgeStyle=orthogonalEdgeStyle;rounded=0;orthogonalLoop=1;jettySize=auto;html=1;exitX=0.5;exitY=1;exitDx=0;exitDy=0;entryX=0;entryY=0;entryDx=0;entryDy=0;strokeColor=light-dark(#000000,#4D4D4D);endArrow=none;endFill=0;" parent="1" source="vVDjYdug2uCJDTK2KYmB-39" edge="1">
          <mxGeometry relative="1" as="geometry">
            <mxPoint x="-859.8736925132566" y="579.3308241024083" as="targetPoint" />
          </mxGeometry>
        </mxCell>
        <mxCell id="vVDjYdug2uCJDTK2KYmB-39" value="Cpf" style="ellipse;whiteSpace=wrap;html=1;align=center;fontStyle=4;fillColor=#d0cee2;strokeColor=#56517e;" parent="1" vertex="1">
          <mxGeometry x="-890" y="530" width="50" height="30" as="geometry" />
        </mxCell>
        <mxCell id="vVDjYdug2uCJDTK2KYmB-42" value="Nome" style="ellipse;whiteSpace=wrap;html=1;align=center;fillColor=#d0cee2;strokeColor=#56517e;" parent="1" vertex="1">
          <mxGeometry x="-840" y="510" width="57.5" height="30" as="geometry" />
        </mxCell>
        <mxCell id="vVDjYdug2uCJDTK2KYmB-43" style="edgeStyle=orthogonalEdgeStyle;rounded=0;orthogonalLoop=1;jettySize=auto;html=1;exitX=0.5;exitY=1;exitDx=0;exitDy=0;entryX=0.693;entryY=0.068;entryDx=0;entryDy=0;entryPerimeter=0;strokeColor=light-dark(#000000,#4D4D4D);endArrow=none;endFill=0;" parent="1" source="vVDjYdug2uCJDTK2KYmB-42" edge="1">
          <mxGeometry relative="1" as="geometry">
            <mxPoint x="-813.595" y="577.04" as="targetPoint" />
          </mxGeometry>
        </mxCell>
        <mxCell id="vVDjYdug2uCJDTK2KYmB-51" style="edgeStyle=orthogonalEdgeStyle;rounded=0;orthogonalLoop=1;jettySize=auto;html=1;exitX=0.5;exitY=1;exitDx=0;exitDy=0;entryX=0.5;entryY=0;entryDx=0;entryDy=0;strokeColor=light-dark(#000000,#4D4D4D);endArrow=none;endFill=0;" parent="1" source="vVDjYdug2uCJDTK2KYmB-44" target="vVDjYdug2uCJDTK2KYmB-50" edge="1">
          <mxGeometry relative="1" as="geometry" />
        </mxCell>
        <mxCell id="vVDjYdug2uCJDTK2KYmB-65" style="edgeStyle=orthogonalEdgeStyle;rounded=0;orthogonalLoop=1;jettySize=auto;html=1;exitX=1;exitY=0.5;exitDx=0;exitDy=0;entryX=0;entryY=0.5;entryDx=0;entryDy=0;endArrow=none;endFill=0;strokeColor=light-dark(#000000,#4D4D4D);" parent="1" source="vVDjYdug2uCJDTK2KYmB-44" target="vVDjYdug2uCJDTK2KYmB-64" edge="1">
          <mxGeometry relative="1" as="geometry" />
        </mxCell>
        <mxCell id="vVDjYdug2uCJDTK2KYmB-67" style="edgeStyle=orthogonalEdgeStyle;rounded=0;orthogonalLoop=1;jettySize=auto;html=1;exitX=1;exitY=0;exitDx=0;exitDy=0;entryX=0;entryY=0.5;entryDx=0;entryDy=0;strokeColor=light-dark(#000000,#4D4D4D);endArrow=none;endFill=0;" parent="1" source="vVDjYdug2uCJDTK2KYmB-44" target="vVDjYdug2uCJDTK2KYmB-66" edge="1">
          <mxGeometry relative="1" as="geometry" />
        </mxCell>
        <mxCell id="vVDjYdug2uCJDTK2KYmB-44" value="Aluno" style="whiteSpace=wrap;html=1;align=center;fillColor=#d0cee2;strokeColor=#56517e;" parent="1" vertex="1">
          <mxGeometry x="-460" y="570" width="70" height="40" as="geometry" />
        </mxCell>
        <mxCell id="vVDjYdug2uCJDTK2KYmB-47" style="edgeStyle=orthogonalEdgeStyle;rounded=0;orthogonalLoop=1;jettySize=auto;html=1;exitX=1;exitY=0.5;exitDx=0;exitDy=0;entryX=0;entryY=0.5;entryDx=0;entryDy=0;strokeColor=light-dark(#000000,#4D4D4D);endArrow=none;endFill=0;" parent="1" source="vVDjYdug2uCJDTK2KYmB-45" target="vVDjYdug2uCJDTK2KYmB-44" edge="1">
          <mxGeometry relative="1" as="geometry" />
        </mxCell>
        <mxCell id="vVDjYdug2uCJDTK2KYmB-48" value="N" style="edgeLabel;html=1;align=center;verticalAlign=middle;resizable=0;points=[];fontSize=12;labelBorderColor=none;labelBackgroundColor=none;fontColor=light-dark(#000000,#1A1A1A);" parent="vVDjYdug2uCJDTK2KYmB-47" vertex="1" connectable="0">
          <mxGeometry x="0.4" y="-3" relative="1" as="geometry">
            <mxPoint x="11" y="-13" as="offset" />
          </mxGeometry>
        </mxCell>
        <mxCell id="vVDjYdug2uCJDTK2KYmB-61" style="edgeStyle=orthogonalEdgeStyle;rounded=0;orthogonalLoop=1;jettySize=auto;html=1;exitX=0.5;exitY=1;exitDx=0;exitDy=0;entryX=0.5;entryY=0;entryDx=0;entryDy=0;endArrow=none;endFill=0;strokeColor=light-dark(#000000,#4D4D4D);" parent="1" source="vVDjYdug2uCJDTK2KYmB-45" target="vVDjYdug2uCJDTK2KYmB-60" edge="1">
          <mxGeometry relative="1" as="geometry" />
        </mxCell>
        <mxCell id="vVDjYdug2uCJDTK2KYmB-63" style="edgeStyle=orthogonalEdgeStyle;rounded=0;orthogonalLoop=1;jettySize=auto;html=1;exitX=1;exitY=1;exitDx=0;exitDy=0;entryX=0;entryY=0;entryDx=0;entryDy=0;strokeColor=light-dark(#000000,#4D4D4D);endArrow=none;endFill=0;" parent="1" source="vVDjYdug2uCJDTK2KYmB-45" target="vVDjYdug2uCJDTK2KYmB-62" edge="1">
          <mxGeometry relative="1" as="geometry" />
        </mxCell>
        <mxCell id="vVDjYdug2uCJDTK2KYmB-45" value="Matricula" style="shape=rhombus;perimeter=rhombusPerimeter;whiteSpace=wrap;html=1;align=center;fillColor=#d0cee2;strokeColor=#56517e;" parent="1" vertex="1">
          <mxGeometry x="-620" y="565" width="90" height="50" as="geometry" />
        </mxCell>
        <mxCell id="vVDjYdug2uCJDTK2KYmB-49" value="N" style="edgeLabel;html=1;align=center;verticalAlign=middle;resizable=0;points=[];fontSize=12;labelBorderColor=none;labelBackgroundColor=none;fontColor=light-dark(#000000,#1A1A1A);" parent="1" vertex="1" connectable="0">
          <mxGeometry x="-580" y="590" as="geometry">
            <mxPoint x="-108" y="-15" as="offset" />
          </mxGeometry>
        </mxCell>
        <mxCell id="vVDjYdug2uCJDTK2KYmB-50" value="Cpf" style="ellipse;whiteSpace=wrap;html=1;align=center;fontStyle=4;fillColor=#d0cee2;strokeColor=#56517e;" parent="1" vertex="1">
          <mxGeometry x="-450" y="640" width="50" height="30" as="geometry" />
        </mxCell>
        <mxCell id="vVDjYdug2uCJDTK2KYmB-58" style="edgeStyle=orthogonalEdgeStyle;rounded=0;orthogonalLoop=1;jettySize=auto;html=1;exitX=0.5;exitY=1;exitDx=0;exitDy=0;entryX=0.5;entryY=0;entryDx=0;entryDy=0;endArrow=none;endFill=0;strokeColor=light-dark(#000000,#4D4D4D);" parent="1" source="vVDjYdug2uCJDTK2KYmB-53" target="vVDjYdug2uCJDTK2KYmB-57" edge="1">
          <mxGeometry relative="1" as="geometry" />
        </mxCell>
        <mxCell id="vVDjYdug2uCJDTK2KYmB-53" value="Nome" style="ellipse;whiteSpace=wrap;html=1;align=center;fillColor=#d0cee2;strokeColor=#56517e;" parent="1" vertex="1">
          <mxGeometry x="-390" y="630" width="57.5" height="30" as="geometry" />
        </mxCell>
        <mxCell id="vVDjYdug2uCJDTK2KYmB-54" style="edgeStyle=orthogonalEdgeStyle;rounded=0;orthogonalLoop=1;jettySize=auto;html=1;exitX=1;exitY=1;exitDx=0;exitDy=0;strokeColor=light-dark(#000000,#4D4D4D);endArrow=none;endFill=0;" parent="1" source="vVDjYdug2uCJDTK2KYmB-44" edge="1">
          <mxGeometry relative="1" as="geometry">
            <mxPoint x="-367" y="629" as="targetPoint" />
          </mxGeometry>
        </mxCell>
        <mxCell id="vVDjYdug2uCJDTK2KYmB-55" value="&lt;div&gt;Primeiro Nome&lt;/div&gt;" style="ellipse;whiteSpace=wrap;html=1;align=center;fillColor=#d0cee2;strokeColor=#56517e;" parent="1" vertex="1">
          <mxGeometry x="-340" y="660" width="100" height="30" as="geometry" />
        </mxCell>
        <mxCell id="vVDjYdug2uCJDTK2KYmB-56" style="edgeStyle=orthogonalEdgeStyle;rounded=0;orthogonalLoop=1;jettySize=auto;html=1;exitX=1;exitY=0.5;exitDx=0;exitDy=0;entryX=0.422;entryY=-0.021;entryDx=0;entryDy=0;entryPerimeter=0;strokeColor=light-dark(#000000,#4D4D4D);endArrow=none;endFill=0;" parent="1" source="vVDjYdug2uCJDTK2KYmB-53" target="vVDjYdug2uCJDTK2KYmB-55" edge="1">
          <mxGeometry relative="1" as="geometry" />
        </mxCell>
        <mxCell id="vVDjYdug2uCJDTK2KYmB-57" value="Segundo Nome" style="ellipse;whiteSpace=wrap;html=1;align=center;fillColor=#d0cee2;strokeColor=#56517e;" parent="1" vertex="1">
          <mxGeometry x="-411.25" y="690" width="100" height="30" as="geometry" />
        </mxCell>
        <mxCell id="vVDjYdug2uCJDTK2KYmB-60" value="Data" style="ellipse;whiteSpace=wrap;html=1;align=center;fillColor=#d0cee2;strokeColor=#56517e;" parent="1" vertex="1">
          <mxGeometry x="-600" y="630" width="50" height="30" as="geometry" />
        </mxCell>
        <mxCell id="vVDjYdug2uCJDTK2KYmB-62" value="Pagamento" style="ellipse;whiteSpace=wrap;html=1;align=center;fillColor=#d0cee2;strokeColor=#56517e;" parent="1" vertex="1">
          <mxGeometry x="-550" y="615" width="80" height="30" as="geometry" />
        </mxCell>
        <mxCell id="vVDjYdug2uCJDTK2KYmB-64" value="Sexo" style="ellipse;whiteSpace=wrap;html=1;align=center;fillColor=#d0cee2;strokeColor=#56517e;" parent="1" vertex="1">
          <mxGeometry x="-350" y="572.5" width="50" height="35" as="geometry" />
        </mxCell>
        <mxCell id="vVDjYdug2uCJDTK2KYmB-66" value="Data de nascimento" style="ellipse;whiteSpace=wrap;html=1;align=center;fillColor=#d0cee2;strokeColor=#56517e;" parent="1" vertex="1">
          <mxGeometry x="-370" y="525" width="90" height="40" as="geometry" />
        </mxCell>
        <mxCell id="vVDjYdug2uCJDTK2KYmB-79" style="edgeStyle=orthogonalEdgeStyle;rounded=0;orthogonalLoop=1;jettySize=auto;html=1;exitX=0;exitY=1;exitDx=0;exitDy=0;entryX=1;entryY=0;entryDx=0;entryDy=0;strokeColor=light-dark(#000000,#4D4D4D);endArrow=none;endFill=0;" parent="1" source="vVDjYdug2uCJDTK2KYmB-68" target="vVDjYdug2uCJDTK2KYmB-78" edge="1">
          <mxGeometry relative="1" as="geometry" />
        </mxCell>
        <mxCell id="vVDjYdug2uCJDTK2KYmB-82" style="edgeStyle=orthogonalEdgeStyle;rounded=0;orthogonalLoop=1;jettySize=auto;html=1;exitX=1;exitY=0.5;exitDx=0;exitDy=0;entryX=0;entryY=0.5;entryDx=0;entryDy=0;strokeColor=light-dark(#000000,#4D4D4D);endArrow=none;endFill=0;" parent="1" source="vVDjYdug2uCJDTK2KYmB-68" target="vVDjYdug2uCJDTK2KYmB-81" edge="1">
          <mxGeometry relative="1" as="geometry" />
        </mxCell>
        <mxCell id="vVDjYdug2uCJDTK2KYmB-85" value="1" style="edgeLabel;html=1;align=center;verticalAlign=middle;resizable=0;points=[];fontSize=12;labelBackgroundColor=none;fontColor=light-dark(#000000,#1A1A1A);" parent="vVDjYdug2uCJDTK2KYmB-82" vertex="1" connectable="0">
          <mxGeometry x="-0.5793" y="-3" relative="1" as="geometry">
            <mxPoint x="-7" y="-13" as="offset" />
          </mxGeometry>
        </mxCell>
        <mxCell id="vVDjYdug2uCJDTK2KYmB-68" value="Módulo" style="whiteSpace=wrap;html=1;align=center;fillColor=#d0cee2;strokeColor=#56517e;" parent="1" vertex="1">
          <mxGeometry x="-768.75" y="780" width="67.5" height="40" as="geometry" />
        </mxCell>
        <mxCell id="vVDjYdug2uCJDTK2KYmB-73" style="edgeStyle=orthogonalEdgeStyle;rounded=0;orthogonalLoop=1;jettySize=auto;html=1;exitX=0.5;exitY=1;exitDx=0;exitDy=0;strokeColor=light-dark(#000000,#4D4D4D);startArrow=none;startFill=0;endArrow=none;endFill=0;shape=link;" parent="1" source="vVDjYdug2uCJDTK2KYmB-70" target="vVDjYdug2uCJDTK2KYmB-68" edge="1">
          <mxGeometry relative="1" as="geometry" />
        </mxCell>
        <mxCell id="vVDjYdug2uCJDTK2KYmB-70" value="Compõe" style="shape=rhombus;perimeter=rhombusPerimeter;whiteSpace=wrap;html=1;align=center;fillColor=#d0cee2;strokeColor=#56517e;" parent="1" vertex="1">
          <mxGeometry x="-777.5" y="677.5" width="85" height="55" as="geometry" />
        </mxCell>
        <mxCell id="vVDjYdug2uCJDTK2KYmB-75" value="N" style="edgeLabel;html=1;align=center;verticalAlign=middle;resizable=0;points=[];fontSize=12;labelBorderColor=none;labelBackgroundColor=none;fontColor=light-dark(#000000,#1A1A1A);" parent="1" vertex="1" connectable="0">
          <mxGeometry x="-640" y="780" as="geometry">
            <mxPoint x="-108" y="-15" as="offset" />
          </mxGeometry>
        </mxCell>
        <mxCell id="vVDjYdug2uCJDTK2KYmB-77" style="edgeStyle=orthogonalEdgeStyle;rounded=0;orthogonalLoop=1;jettySize=auto;html=1;exitX=1;exitY=0.5;exitDx=0;exitDy=0;endArrow=none;endFill=0;strokeColor=light-dark(#000000,#4D4D4D);" parent="1" source="vVDjYdug2uCJDTK2KYmB-76" edge="1">
          <mxGeometry relative="1" as="geometry">
            <mxPoint x="-770" y="800.2105263157896" as="targetPoint" />
          </mxGeometry>
        </mxCell>
        <mxCell id="vVDjYdug2uCJDTK2KYmB-76" value="Sigla" style="ellipse;whiteSpace=wrap;html=1;align=center;fontStyle=4;fillColor=#d0cee2;strokeColor=#56517e;" parent="1" vertex="1">
          <mxGeometry x="-847.5" y="785" width="60" height="30" as="geometry" />
        </mxCell>
        <mxCell id="vVDjYdug2uCJDTK2KYmB-78" value="Nome" style="ellipse;whiteSpace=wrap;html=1;align=center;fillColor=#d0cee2;strokeColor=#56517e;" parent="1" vertex="1">
          <mxGeometry x="-827.5" y="830" width="57.5" height="30" as="geometry" />
        </mxCell>
        <mxCell id="vVDjYdug2uCJDTK2KYmB-88" style="edgeStyle=orthogonalEdgeStyle;rounded=0;orthogonalLoop=1;jettySize=auto;html=1;exitX=1;exitY=0.5;exitDx=0;exitDy=0;entryX=0;entryY=0.5;entryDx=0;entryDy=0;strokeColor=light-dark(#000000,#4D4D4D);endArrow=none;endFill=0;" parent="1" source="vVDjYdug2uCJDTK2KYmB-80" target="vVDjYdug2uCJDTK2KYmB-87" edge="1">
          <mxGeometry relative="1" as="geometry" />
        </mxCell>
        <mxCell id="vVDjYdug2uCJDTK2KYmB-92" style="edgeStyle=orthogonalEdgeStyle;rounded=0;orthogonalLoop=1;jettySize=auto;html=1;exitX=0.5;exitY=1;exitDx=0;exitDy=0;entryX=0.5;entryY=0;entryDx=0;entryDy=0;endArrow=none;endFill=0;strokeColor=light-dark(#000000,#4D4D4D);" parent="1" source="vVDjYdug2uCJDTK2KYmB-80" target="vVDjYdug2uCJDTK2KYmB-91" edge="1">
          <mxGeometry relative="1" as="geometry" />
        </mxCell>
        <mxCell id="vVDjYdug2uCJDTK2KYmB-80" value="Tópico" style="shape=ext;margin=3;double=1;whiteSpace=wrap;html=1;align=center;fillColor=#d0cee2;strokeColor=#56517e;" parent="1" vertex="1">
          <mxGeometry x="-460" y="780" width="81.25" height="40" as="geometry" />
        </mxCell>
        <mxCell id="vVDjYdug2uCJDTK2KYmB-84" style="edgeStyle=orthogonalEdgeStyle;rounded=0;orthogonalLoop=1;jettySize=auto;html=1;exitX=1;exitY=0.5;exitDx=0;exitDy=0;entryX=0;entryY=0.5;entryDx=0;entryDy=0;strokeColor=light-dark(#000000,#4D4D4D);endArrow=none;endFill=0;shape=link;" parent="1" source="vVDjYdug2uCJDTK2KYmB-81" target="vVDjYdug2uCJDTK2KYmB-80" edge="1">
          <mxGeometry relative="1" as="geometry" />
        </mxCell>
        <mxCell id="vVDjYdug2uCJDTK2KYmB-81" value="Compõe" style="shape=rhombus;double=1;perimeter=rhombusPerimeter;whiteSpace=wrap;html=1;align=center;fillColor=#d0cee2;strokeColor=#56517e;" parent="1" vertex="1">
          <mxGeometry x="-625" y="770" width="90" height="60" as="geometry" />
        </mxCell>
        <mxCell id="vVDjYdug2uCJDTK2KYmB-86" value="N" style="edgeLabel;html=1;align=center;verticalAlign=middle;resizable=0;points=[];fontSize=12;labelBorderColor=none;labelBackgroundColor=none;fontColor=light-dark(#000000,#1A1A1A);" parent="1" vertex="1" connectable="0">
          <mxGeometry x="-361.25" y="800" as="geometry">
            <mxPoint x="-108" y="-15" as="offset" />
          </mxGeometry>
        </mxCell>
        <mxCell id="vVDjYdug2uCJDTK2KYmB-87" value="Nome" style="ellipse;whiteSpace=wrap;html=1;align=center;fillColor=#d0cee2;strokeColor=#56517e;" parent="1" vertex="1">
          <mxGeometry x="-350" y="780" width="50" height="40" as="geometry" />
        </mxCell>
        <mxCell id="vVDjYdug2uCJDTK2KYmB-89" value="Sigla" style="ellipse;whiteSpace=wrap;html=1;align=center;fontStyle=4;fillColor=#d0cee2;strokeColor=#56517e;" parent="1" vertex="1">
          <mxGeometry x="-378.75" y="840" width="60" height="30" as="geometry" />
        </mxCell>
        <mxCell id="vVDjYdug2uCJDTK2KYmB-90" style="edgeStyle=orthogonalEdgeStyle;rounded=0;orthogonalLoop=1;jettySize=auto;html=1;exitX=1;exitY=1;exitDx=0;exitDy=0;strokeColor=light-dark(#000000,#4D4D4D);endArrow=none;endFill=0;" parent="1" source="vVDjYdug2uCJDTK2KYmB-80" edge="1">
          <mxGeometry relative="1" as="geometry">
            <mxPoint x="-357" y="840" as="targetPoint" />
          </mxGeometry>
        </mxCell>
        <mxCell id="vVDjYdug2uCJDTK2KYmB-91" value="Horas" style="ellipse;whiteSpace=wrap;html=1;align=center;fillColor=#d0cee2;strokeColor=#56517e;" parent="1" vertex="1">
          <mxGeometry x="-445" y="840" width="55" height="40" as="geometry" />
        </mxCell>
        <mxCell id="vVDjYdug2uCJDTK2KYmB-93" value="Horas do Curso" style="ellipse;whiteSpace=wrap;html=1;align=center;dashed=1;fillColor=#d0cee2;strokeColor=light-dark(#56517e, #c0bfbc);strokeWidth=3;" parent="1" vertex="1">
          <mxGeometry x="-885" y="650" width="100" height="40" as="geometry" />
        </mxCell>
        <mxCell id="vVDjYdug2uCJDTK2KYmB-95" value="Professores" style="ellipse;shape=doubleEllipse;margin=3;whiteSpace=wrap;html=1;align=center;fillColor=#d0cee2;strokeColor=#56517e;" parent="1" vertex="1">
          <mxGeometry x="-885" y="570" width="100" height="30" as="geometry" />
        </mxCell>
      </root>
    </mxGraphModel>
  </diagram>
</mxfile>
